<?xml version="1.0" encoding="utf-8"?>
<!-- Generator: Adobe Illustrator 17.1.0, SVG Export Plug-In . SVG Version: 6.00 Build 0)  -->
<!DOCTYPE svg PUBLIC "-//W3C//DTD SVG 1.1//EN" "http://www.w3.org/Graphics/SVG/1.1/DTD/svg11.dtd">
<svg version="1.1" id="Laag_1" xmlns="http://www.w3.org/2000/svg" xmlns:xlink="http://www.w3.org/1999/xlink" x="0px" y="0px"
	 viewBox="0 0 195.488 32.104" enable-background="new 0 0 195.488 32.104" xml:space="preserve">
<g>
	<path fill="#ED6A1D" d="M20.392,1.097v29.909c0,0.487-0.245,0.731-0.732,0.731h-5.02c-0.488,0-0.732-0.244-0.732-0.731V17.097
		l-3.451,12.445c-0.07,0.174-0.157,0.26-0.261,0.26c-0.104,0-0.191-0.086-0.261-0.26L6.484,17.097v13.909
		c0,0.487-0.245,0.731-0.732,0.731h-5.02C0.244,31.737,0,31.493,0,31.006V1.097C0,0.61,0.244,0.367,0.732,0.367h4.444
		c0.209,0,0.392,0.078,0.549,0.235c0.158,0.155,0.27,0.321,0.34,0.495l4.131,16.104l4.131-16.104c0.068-0.174,0.182-0.34,0.34-0.495
		c0.157-0.158,0.339-0.235,0.549-0.235h4.444C20.147,0.367,20.392,0.61,20.392,1.097z"/>
	<path fill="#ED6A1D" d="M31.214,31.006c0,0.487-0.244,0.731-0.732,0.731h-4.653c-0.488,0-0.732-0.244-0.732-0.731V1.097
		c0-0.487,0.244-0.731,0.732-0.731h4.653c0.488,0,0.732,0.243,0.732,0.731V31.006z"/>
	<path fill="#ED6A1D" d="M49.304,0.367c0.488,0,0.732,0.243,0.732,0.731v24.417c0,0.907-0.174,1.761-0.522,2.564
		c-0.349,0.8-0.82,1.499-1.412,2.09c-0.594,0.594-1.29,1.062-2.092,1.41c-0.803,0.348-1.657,0.524-2.563,0.524h-1.986
		c-0.907,0-1.761-0.177-2.563-0.524c-0.802-0.348-1.499-0.816-2.092-1.41c-0.593-0.591-1.062-1.29-1.412-2.09
		c-0.348-0.803-0.522-1.657-0.522-2.564v-5.594c0-0.487,0.226-0.8,0.68-0.942l4.757-1.253c0.452-0.139,0.68,0.035,0.68,0.522v7.007
		c0,0.348,0.122,0.645,0.367,0.889c0.242,0.244,0.539,0.364,0.889,0.364h0.418c0.348,0,0.645-0.12,0.89-0.364
		c0.242-0.243,0.365-0.541,0.365-0.889V1.097c0-0.487,0.244-0.731,0.732-0.731H49.304z"/>
	<path fill="#ED6A1D" d="M71.211,1.097v29.909c0,0.487-0.245,0.731-0.732,0.731h-3.347c-0.209,0-0.409-0.07-0.601-0.209
		c-0.191-0.139-0.323-0.297-0.392-0.471L60.597,17.41v13.596c0,0.487-0.243,0.731-0.732,0.731h-4.653
		c-0.488,0-0.732-0.244-0.732-0.731V1.097c0-0.487,0.243-0.731,0.732-0.731h3.451c0.209,0,0.41,0.07,0.601,0.209
		c0.191,0.139,0.322,0.297,0.392,0.471l5.438,15.215V1.097c0-0.487,0.242-0.731,0.732-0.731h4.653
		C70.967,0.367,71.211,0.61,71.211,1.097z"/>
	<path fill="#2E3238" d="M101.69,1.097l-5.647,29.909c-0.07,0.487-0.348,0.731-0.835,0.731h-4.601c-0.489,0-0.767-0.244-0.836-0.731
		L87.94,20.079h-0.052l-1.829,10.928c-0.071,0.487-0.349,0.731-0.836,0.731h-4.601c-0.49,0-0.768-0.244-0.838-0.731L74.138,1.097
		c-0.071-0.487,0.139-0.731,0.628-0.731h5.646c0.452,0,0.715,0.243,0.784,0.731l1.831,17.672h0.209l1.987-17.672
		c0.07-0.487,0.331-0.731,0.784-0.731h3.817c0.452,0,0.715,0.243,0.784,0.731l1.987,17.672h0.207l1.831-17.672
		c0.07-0.487,0.332-0.731,0.784-0.731h5.647C101.551,0.367,101.76,0.61,101.69,1.097z"/>
	<path fill="#2E3238" d="M122.186,0.602c0.07,0.155,0.07,0.321,0,0.495l-7.111,13.334l7.007,16.575
		c0.07,0.174,0.051,0.337-0.054,0.495s-0.26,0.236-0.468,0.236h-5.176c-0.212,0-0.401-0.062-0.576-0.182
		c-0.177-0.123-0.297-0.27-0.367-0.444l-3.817-8.68l-0.889,1.673v6.903c0,0.487-0.246,0.731-0.733,0.731h-4.652
		c-0.49,0-0.733-0.244-0.733-0.731V1.097c0-0.487,0.244-0.731,0.733-0.731h4.652c0.487,0,0.733,0.243,0.733,0.731v9.151l4.81-9.255
		c0.174-0.418,0.506-0.626,0.993-0.626h5.23C121.978,0.367,122.117,0.444,122.186,0.602z"/>
	<path fill="#2E3238" d="M134.265,0.367c0.905,0,1.758,0.174,2.561,0.522c0.803,0.348,1.499,0.819,2.093,1.413
		c0.591,0.591,1.062,1.29,1.41,2.09c0.348,0.803,0.522,1.657,0.522,2.561v6.953c0,0.907-0.174,1.761-0.522,2.564
		c-0.348,0.8-0.819,1.499-1.41,2.09c-0.594,0.594-1.29,1.065-2.093,1.413c-0.803,0.348-1.657,0.522-2.561,0.522h-2.457v10.51
		c0,0.487-0.246,0.731-0.733,0.731h-4.652c-0.49,0-0.733-0.244-0.733-0.731V1.097c0-0.487,0.243-0.731,0.733-0.731H134.265z
		 M134.736,7.216c0-0.348-0.123-0.645-0.367-0.889c-0.244-0.244-0.541-0.367-0.889-0.367h-1.673v8.942h1.673
		c0.348,0,0.645-0.123,0.889-0.367c0.243-0.243,0.367-0.541,0.367-0.888V7.216z"/>
	<path fill="#2E3238" d="M158.891,25.514c0,0.907-0.174,1.761-0.522,2.564c-0.351,0.8-0.822,1.499-1.413,2.09
		c-0.592,0.594-1.29,1.062-2.09,1.41c-0.803,0.348-1.657,0.524-2.561,0.524h-1.989c-0.907,0-1.761-0.177-2.561-0.524
		c-0.803-0.348-1.499-0.816-2.09-1.41c-0.594-0.591-1.065-1.29-1.413-2.09c-0.348-0.803-0.522-1.657-0.522-2.564V6.587
		c0-0.905,0.174-1.758,0.522-2.561c0.348-0.8,0.819-1.499,1.413-2.09c0.592-0.591,1.287-1.063,2.09-1.413
		c0.8-0.348,1.654-0.522,2.561-0.522h1.989c0.905,0,1.758,0.174,2.561,0.522c0.8,0.351,1.499,0.822,2.09,1.413
		c0.591,0.591,1.062,1.29,1.413,2.09c0.348,0.803,0.522,1.657,0.522,2.561V25.514z M152.773,6.849c0-0.348-0.12-0.645-0.364-0.889
		c-0.246-0.244-0.541-0.367-0.889-0.367h-0.42c-0.348,0-0.645,0.123-0.889,0.367c-0.244,0.243-0.367,0.541-0.367,0.889v18.406
		c0,0.348,0.123,0.645,0.367,0.889c0.244,0.244,0.541,0.364,0.889,0.364h0.42c0.348,0,0.642-0.12,0.889-0.364
		c0.244-0.243,0.364-0.541,0.364-0.889V6.849z"/>
	<path fill="#2E3238" d="M177.711,25.514c0,0.907-0.174,1.761-0.522,2.564c-0.351,0.8-0.822,1.499-1.413,2.09
		c-0.592,0.594-1.29,1.062-2.09,1.41c-0.803,0.348-1.657,0.524-2.561,0.524h-1.989c-0.907,0-1.761-0.177-2.561-0.524
		c-0.803-0.348-1.499-0.816-2.09-1.41c-0.594-0.591-1.065-1.29-1.413-2.09c-0.348-0.803-0.522-1.657-0.522-2.564V6.587
		c0-0.905,0.174-1.758,0.522-2.561c0.348-0.8,0.819-1.499,1.413-2.09c0.592-0.591,1.287-1.063,2.09-1.413
		c0.8-0.348,1.654-0.522,2.561-0.522h1.989c0.905,0,1.758,0.174,2.561,0.522c0.8,0.351,1.499,0.822,2.09,1.413
		c0.591,0.591,1.063,1.29,1.413,2.09c0.348,0.803,0.522,1.657,0.522,2.561V25.514z M171.593,6.849c0-0.348-0.12-0.645-0.364-0.889
		c-0.246-0.244-0.541-0.367-0.889-0.367h-0.42c-0.348,0-0.645,0.123-0.889,0.367c-0.244,0.243-0.367,0.541-0.367,0.889v18.406
		c0,0.348,0.123,0.645,0.367,0.889c0.243,0.244,0.541,0.364,0.889,0.364h0.42c0.348,0,0.642-0.12,0.889-0.364
		c0.244-0.243,0.364-0.541,0.364-0.889V6.849z"/>
	<path fill="#2E3238" d="M195.488,26.352v4.654c0,0.487-0.243,0.731-0.731,0.731H187.7h-0.107h-0.051h-4.654
		c-0.487,0-0.731-0.244-0.731-0.731V1.097c0-0.487,0.244-0.731,0.731-0.731h4.654c0.487,0,0.731,0.243,0.731,0.731v24.521h6.485
		C195.245,25.619,195.488,25.865,195.488,26.352z"/>
</g>
</svg>
